<svg width="32" height="31" viewBox="0 0 32 31" fill="none" xmlns="http://www.w3.org/2000/svg">
<path d="M14.1828 4.79981C14.7668 4.79786 15.2837 5.17629 15.4589 5.73341L19.7987 19.5485L20.8156 14.7451L20.8456 14.6318C21.0151 14.0756 21.5298 13.6879 22.1203 13.6878H27.4667L27.6034 13.6943C28.2755 13.7628 28.8 14.331 28.8 15.0212C28.8 15.7114 28.2756 16.2795 27.6034 16.348L27.4667 16.3545H23.201L21.3547 25.0759C21.2292 25.6687 20.7203 26.1027 20.1151 26.1318C19.5098 26.1609 18.9609 25.7777 18.7792 25.1996L14.2036 10.6357L12.7414 15.4118C12.5698 15.972 12.0526 16.3545 11.4667 16.3545H6.13334C5.39696 16.3545 4.8 15.7575 4.8 15.0212C4.80005 14.2848 5.39699 13.6878 6.13334 13.6878H10.481L12.912 5.74252L12.9914 5.542C13.2125 5.09443 13.6715 4.80168 14.1828 4.79981Z" fill="#1BC587"/>
</svg>
