<svg width="28" height="28" viewBox="0 0 28 28" fill="none" xmlns="http://www.w3.org/2000/svg">
<path d="M8.70083 8.26189C8.70082 7.65762 9.16036 7.16046 9.74894 7.10099L9.86737 7.09535L19.8096 7.09454C20.1188 7.09454 20.4158 7.21758 20.6345 7.43612C20.8533 7.65492 20.9769 7.95247 20.9769 8.26189L20.9761 18.0623C20.9761 18.7066 20.4539 19.2288 19.8096 19.2288C19.1654 19.2286 18.643 18.7065 18.643 18.0623L18.643 11.0775L9.08511 20.6355C8.6295 21.0911 7.89081 21.0911 7.43519 20.6355C6.97998 20.1798 6.97972 19.441 7.43519 18.9855L16.9923 9.42843L9.86737 9.42843L9.74814 9.42199C9.16004 9.36214 8.70096 8.86575 8.70083 8.26189Z" fill="currentColor"/>
<path d="M8.70083 8.26189C8.70082 7.65762 9.16036 7.16046 9.74894 7.10099L9.86737 7.09535L19.8096 7.09454C20.1188 7.09454 20.4158 7.21758 20.6345 7.43612C20.8533 7.65492 20.9769 7.95247 20.9769 8.26189L20.9761 18.0623C20.9761 18.7066 20.4539 19.2288 19.8096 19.2288C19.1654 19.2286 18.643 18.7065 18.643 18.0623L18.643 11.0775L9.08511 20.6355C8.6295 21.0911 7.89081 21.0911 7.43519 20.6355C6.97998 20.1798 6.97972 19.441 7.43519 18.9855L16.9923 9.42843L9.86737 9.42843L9.74814 9.42199C9.16004 9.36214 8.70096 8.86575 8.70083 8.26189Z" fill="currentColor"/>
</svg>
