<svg xmlns="http://www.w3.org/2000/svg" width="20" height="20" viewBox="0 0 20 20" fill="none">
<path d="M14.4108 4.41082C14.7363 4.08539 15.2638 4.08539 15.5892 4.41082C15.9146 4.73626 15.9146 5.26377 15.5892 5.58921L11.1784 10L15.5892 14.4108L15.6462 14.4743C15.9131 14.8016 15.8943 15.2841 15.5892 15.5892C15.2841 15.8943 14.8016 15.9131 14.4743 15.6462L14.4108 15.5892L10 11.1784L5.58921 15.5892C5.26377 15.9146 4.73626 15.9146 4.41083 15.5892C4.08539 15.2638 4.08539 14.7363 4.41083 14.4108L8.82163 10L4.41083 5.58921L4.35386 5.52573C4.0869 5.19842 4.10573 4.71592 4.41083 4.41082C4.71592 4.10573 5.19842 4.0869 5.52573 4.35386L5.58921 4.41082L10 8.82163L14.4108 4.41082Z" fill="currentColor"/>
</svg>