<svg width="32" height="32" viewBox="0 0 32 32" fill="none" xmlns="http://www.w3.org/2000/svg">
<path d="M26.6058 13.2819C27.1294 12.8546 27.9027 12.885 28.3909 13.373L31.3909 16.373C31.9117 16.8937 31.9115 17.7377 31.3909 18.2585C30.8703 18.7792 30.0263 18.7802 29.5055 18.2598L28.9586 17.7129C28.1172 24.2673 22.5202 29.3327 15.736 29.3327C8.37101 29.3324 2.40002 23.3633 2.40002 15.9993C2.40002 8.6354 8.37101 2.66629 15.736 2.66602C20.5192 2.66602 24.7132 5.18441 27.0654 8.96159L27.288 9.33138L27.3505 9.45247C27.6284 10.0687 27.3987 10.8072 26.8011 11.153C26.2036 11.4986 25.4495 11.3296 25.0537 10.7819L24.9795 10.6673L24.8024 10.3704C22.9173 7.34312 19.5603 5.33268 15.736 5.33268C9.84311 5.33296 5.06669 10.1088 5.06669 15.9993C5.06669 21.8899 9.84311 26.6657 15.736 26.666C21.1785 26.666 25.6645 22.5919 26.3193 17.3288L25.3896 18.2598C24.8688 18.7802 24.0247 18.7791 23.5042 18.2585C22.9836 17.7377 22.9834 16.8937 23.5042 16.373L26.5055 13.373L26.6058 13.2819ZM14.4 11.4993C14.4 10.763 14.997 10.166 15.7334 10.166C16.4697 10.166 17.0667 10.763 17.0667 11.4993V16.8105L20.6552 18.0072L20.7815 18.0566C21.398 18.3339 21.716 19.0383 21.4977 19.6934C21.2792 20.3481 20.6023 20.7214 19.943 20.5736L19.8115 20.5358L15.3115 19.0358C14.7672 18.8542 14.4 18.3452 14.4 17.7715V11.4993Z" fill="currentColor"/>
</svg>
