<svg width="24" height="24" viewBox="0 0 24 24" fill="none" xmlns="http://www.w3.org/2000/svg">
<path d="M14.7251 4.09368C15.5838 3.23474 16.976 3.23438 17.8354 4.0927L19.9057 6.16106C20.7655 7.01985 20.7666 8.41281 19.9077 9.27239L10.1333 19.0517C9.82689 19.3581 9.43694 19.5677 9.01217 19.6533L4.64595 20.5322C4.31781 20.5982 3.97839 20.4963 3.74166 20.2597C3.50492 20.0228 3.40196 19.6827 3.46822 19.3544L4.35006 14.9931C4.43578 14.5693 4.64404 14.1798 4.94967 13.874L14.7251 4.09368ZM6.3647 15.288C6.33697 15.3158 6.3178 15.3511 6.31002 15.3896L5.72701 18.2743L8.61763 17.6923C8.65608 17.6845 8.69145 17.6654 8.7192 17.6376L15.7163 10.6347L13.3647 8.28216L6.3647 15.288ZM16.4223 5.50774C16.3442 5.4297 16.2172 5.42963 16.1391 5.50774L14.7788 6.8681L17.1303 9.22063L18.4926 7.85833C18.5706 7.78024 18.5706 7.65417 18.4926 7.5761L16.4223 5.50774Z" fill="currentColor"/>
</svg>
