<svg width="22" height="25" viewBox="0 0 22 25" fill="none" xmlns="http://www.w3.org/2000/svg">
<path d="M3.63639 24.2424C2.62629 24.2424 1.76771 23.8889 1.06064 23.1818C0.353566 22.4747 3.05176e-05 21.6162 3.05176e-05 20.6061V16.9697H3.63639V0L5.45458 1.81818L7.27276 0L9.09094 1.81818L10.9091 0L12.7273 1.81818L14.5455 0L16.3637 1.81818L18.1818 0L20 1.81818L21.8182 0V20.6061C21.8182 21.6162 21.4647 22.4747 20.7576 23.1818C20.0505 23.8889 19.1919 24.2424 18.1818 24.2424H3.63639ZM18.1818 21.8182C18.5253 21.8182 18.8132 21.702 19.0455 21.4697C19.2778 21.2374 19.394 20.9495 19.394 20.6061V3.63636H6.06064V16.9697H16.9697V20.6061C16.9697 20.9495 17.0859 21.2374 17.3182 21.4697C17.5505 21.702 17.8384 21.8182 18.1818 21.8182ZM7.27276 8.48485V6.06061H14.5455V8.48485H7.27276ZM7.27276 12.1212V9.69697H14.5455V12.1212H7.27276ZM16.9697 8.48485C16.6263 8.48485 16.3384 8.36869 16.1061 8.13636C15.8738 7.90404 15.7576 7.61616 15.7576 7.27273C15.7576 6.92929 15.8738 6.64141 16.1061 6.40909C16.3384 6.17677 16.6263 6.06061 16.9697 6.06061C17.3132 6.06061 17.601 6.17677 17.8334 6.40909C18.0657 6.64141 18.1818 6.92929 18.1818 7.27273C18.1818 7.61616 18.0657 7.90404 17.8334 8.13636C17.601 8.36869 17.3132 8.48485 16.9697 8.48485ZM16.9697 12.1212C16.6263 12.1212 16.3384 12.0051 16.1061 11.7727C15.8738 11.5404 15.7576 11.2525 15.7576 10.9091C15.7576 10.5657 15.8738 10.2778 16.1061 10.0455C16.3384 9.81313 16.6263 9.69697 16.9697 9.69697C17.3132 9.69697 17.601 9.81313 17.8334 10.0455C18.0657 10.2778 18.1818 10.5657 18.1818 10.9091C18.1818 11.2525 18.0657 11.5404 17.8334 11.7727C17.601 12.0051 17.3132 12.1212 16.9697 12.1212ZM3.63639 21.8182H14.5455V19.3939H2.42427V20.6061C2.42427 20.9495 2.54043 21.2374 2.77276 21.4697C3.00508 21.702 3.29296 21.8182 3.63639 21.8182ZM2.42427 21.8182C2.42427 21.8182 2.42427 21.702 2.42427 21.4697C2.42427 21.2374 2.42427 20.9495 2.42427 20.6061V19.3939V21.8182Z" fill="#393939"/>
</svg>
