<svg width="20" height="20" viewBox="0 0 20 20" fill="none" xmlns="http://www.w3.org/2000/svg">
<path d="M2.7832 5.83247C3.55163 4.5015 4.67316 3.40896 6.02378 2.67564C7.3744 1.94231 8.9015 1.59676 10.4363 1.67719C11.971 1.75763 13.4536 2.26091 14.7202 3.1314C15.9868 4.00189 16.988 5.20567 17.6131 6.60967M0.866547 3.24429L1.62636 6.53549C1.75577 7.09605 2.3151 7.44556 2.87565 7.31615L6.16686 6.55634M17.2171 14.1657C16.4487 15.4967 15.3271 16.5892 13.9765 17.3226C12.6259 18.0559 11.0988 18.4014 9.56403 18.321C8.02927 18.2406 6.54665 17.7373 5.28009 16.8668C4.01352 15.9963 3.01234 14.7925 2.38724 13.3885M19.1337 16.7539L18.3739 13.4627C18.2445 12.9022 17.6852 12.5526 17.1246 12.6821L13.8334 13.4419" stroke="#1D1D1D" stroke-width="1.66667" stroke-linecap="round"/>
</svg>
