<svg preserveAspectRatio="none" overflow="visible" style="display: block;" width="16" height="15.9998" viewBox="0 0 16 15.9998" fill="none" xmlns="http://www.w3.org/2000/svg">
<path id="Icon (Stroke)" d="M5.93976 1.46231C6.61647 -0.552572 9.59442 -0.485146 10.1179 1.66388V1.66544L10.1374 1.73028C10.1611 1.79411 10.1961 1.85329 10.2406 1.90528C10.2998 1.97449 10.3744 2.029 10.4585 2.06388C10.5427 2.09874 10.6341 2.11311 10.7249 2.10607C10.8158 2.09899 10.9042 2.07074 10.982 2.02325L11.1656 1.92169C13.0692 0.973299 15.129 3.12758 13.9773 5.0178L13.9765 5.01858C13.9292 5.0963 13.9008 5.18411 13.8937 5.27483C13.8866 5.3657 13.901 5.45704 13.9359 5.54124C13.9707 5.6254 14.0253 5.69995 14.0945 5.75921C14.1637 5.81845 14.2458 5.86117 14.3343 5.88265L14.5367 5.94046C16.5538 6.6156 16.4845 9.59596 14.3351 10.1178V10.1171C14.2466 10.1386 14.1645 10.1812 14.0953 10.2405C14.026 10.2998 13.9716 10.375 13.9367 10.4592C13.9019 10.5434 13.8875 10.6348 13.8945 10.7256C13.9015 10.8163 13.9293 10.9042 13.9765 10.9819H13.9773C15.1291 12.8721 13.0692 15.0269 11.1656 14.0788L10.982 13.9772C10.9042 13.9299 10.8165 13.9015 10.7257 13.8944C10.6349 13.8874 10.5435 13.9018 10.4593 13.9366C10.375 13.9715 10.2999 14.0259 10.2406 14.0952C10.1816 14.164 10.1388 14.2455 10.1171 14.3335L10.1179 14.3343C9.57994 16.5558 6.42158 16.5537 5.88273 14.335L5.88195 14.3343C5.86046 14.2458 5.81848 14.1636 5.75929 14.0944C5.70004 14.0252 5.62548 13.9707 5.54132 13.9358C5.45714 13.901 5.36574 13.8866 5.27491 13.8936C5.18403 13.9007 5.09569 13.929 5.01788 13.9764V13.9772C3.06686 15.166 0.833662 12.933 2.02255 10.9819H2.02333L2.05536 10.9217C2.08374 10.8599 2.10083 10.793 2.10614 10.7249C2.11318 10.6341 2.0988 10.5426 2.06395 10.4585C2.02908 10.3743 1.97455 10.2997 1.90536 10.2405C1.8534 10.196 1.79415 10.161 1.73036 10.1374L1.66551 10.1178C-0.556096 9.57987 -0.553986 6.42149 1.66473 5.88265L1.73348 5.86078C2.04439 5.74361 2.19367 5.38429 2.05692 5.08186L2.02255 5.0178C0.833882 3.06691 3.06624 0.834513 5.0171 2.02247H5.01788C5.09566 2.06984 5.18332 2.09827 5.27413 2.10528C5.36499 2.11229 5.45636 2.098 5.54054 2.0631C5.62468 2.02819 5.6993 1.97373 5.75851 1.9045C5.8177 1.83528 5.85973 1.75317 5.88116 1.66466L5.88195 1.66388L5.93976 1.46231ZM8.55774 2.02325C8.40084 1.45321 7.57905 1.45865 7.43586 2.04044L7.43664 2.04122C7.35594 2.37455 7.19706 2.68372 6.97414 2.94435C6.75118 3.20502 6.46989 3.40983 6.15304 3.54123C5.83638 3.67249 5.49325 3.72692 5.15147 3.70061C4.80949 3.67422 4.47799 3.56809 4.18506 3.38967V3.38889C3.66651 3.07317 3.07334 3.66656 3.38896 4.18498L3.45693 4.30452C4.11377 5.54691 3.43118 7.09973 2.04286 7.43735H2.04208C1.45133 7.58103 1.45393 8.41993 2.04208 8.56235L2.16552 8.59673C2.45185 8.68421 2.71784 8.82957 2.94599 9.02486C3.20662 9.24797 3.41083 9.52975 3.54209 9.84674C3.67329 10.1637 3.72806 10.5071 3.70146 10.8491C3.67484 11.1912 3.56771 11.5226 3.38896 11.8155C3.07399 12.3337 3.66597 12.9258 4.18428 12.6108L4.296 12.5475C4.56031 12.4069 4.85126 12.3216 5.15069 12.2983C5.49267 12.2717 5.83611 12.3265 6.15304 12.4577C6.47001 12.5889 6.75181 12.7932 6.97492 13.0538C7.19803 13.3144 7.35663 13.6243 7.43742 13.9577L7.4718 14.0616C7.6829 14.546 8.42891 14.5091 8.56243 13.9577V13.9569C8.64348 13.6237 8.80262 13.3142 9.02571 13.0538C9.24878 12.7935 9.53011 12.5896 9.84681 12.4585C10.1637 12.3273 10.5072 12.2726 10.8492 12.2991C11.191 12.3256 11.522 12.4325 11.8148 12.6108L11.9124 12.6593C12.3713 12.84 12.84 12.3711 12.6593 11.9124L12.6109 11.8147C12.4325 11.5219 12.3257 11.1909 12.2992 10.8491C12.2727 10.5072 12.3273 10.1636 12.4585 9.84674C12.5897 9.53004 12.7936 9.24869 13.0539 9.02564C13.3142 8.80258 13.6239 8.6442 13.957 8.56313L13.9578 8.56235L14.0617 8.52798C14.5136 8.33096 14.512 7.66788 14.0617 7.47172L13.9578 7.43735C13.6243 7.35655 13.3145 7.19794 13.0539 6.97484C12.7933 6.75175 12.589 6.46991 12.4578 6.15296C12.3266 5.83604 12.2718 5.49258 12.2984 5.15061C12.325 4.80864 12.4322 4.4778 12.6109 4.18498L12.6593 4.08733C12.8526 3.59618 12.3009 3.09251 11.8148 3.3881L11.8156 3.38889C11.5227 3.56763 11.1913 3.67476 10.8492 3.70139C10.5071 3.72799 10.1638 3.67323 9.84681 3.54201C9.52979 3.41074 9.24806 3.20658 9.02493 2.94591C8.8018 2.68524 8.64322 2.37548 8.56243 2.042L8.55774 2.02325ZM8.79993 7.99985C8.79993 7.55802 8.44176 7.19985 7.99993 7.19985C7.5581 7.19985 7.19992 7.55802 7.19992 7.99985C7.19992 8.44168 7.5581 8.79986 7.99993 8.79986C8.44176 8.79986 8.79993 8.44168 8.79993 7.99985ZM10.3999 7.99985C10.3999 9.32534 9.32542 10.3999 7.99993 10.3999C6.67444 10.3999 5.59991 9.32534 5.59991 7.99985C5.59991 6.67436 6.67444 5.59984 7.99993 5.59984C9.32542 5.59984 10.3999 6.67436 10.3999 7.99985Z" fill="white"/>
</svg>
