<svg width="40" height="40" viewBox="0 0 40 40" fill="none" xmlns="http://www.w3.org/2000/svg">
<path d="M20 23.6364L16.3636 20L20 16.3636L23.6364 20L20 23.6364ZM16.1364 12.9545L11.5909 8.40909L20 0L28.4091 8.40909L23.8636 12.9545L20 9.09091L16.1364 12.9545ZM8.40909 28.4091L0 20L8.40909 11.5909L12.9545 16.1364L9.09091 20L12.9545 23.8636L8.40909 28.4091ZM31.5909 28.4091L27.0455 23.8636L30.9091 20L27.0455 16.1364L31.5909 11.5909L40 20L31.5909 28.4091ZM20 40L11.5909 31.5909L16.1364 27.0455L20 30.9091L23.8636 27.0455L28.4091 31.5909L20 40Z" fill="currentColor"/>
</svg>
