<svg width="40" height="44" viewBox="0 0 40 44" fill="none" xmlns="http://www.w3.org/2000/svg">
<path d="M7.87848 40.404C6.19498 40.404 4.764 39.8148 3.58555 38.6364C2.4071 37.4579 1.81787 36.0269 1.81787 34.3434V28.2828H7.87848V0L10.9088 3.0303L13.9391 0L16.9694 3.0303L19.9997 0L23.03 3.0303L26.0603 0L29.0906 3.0303L32.1209 0L35.1512 3.0303L38.1815 0V34.3434C38.1815 36.0269 37.5923 37.4579 36.4138 38.6364C35.2354 39.8148 33.8044 40.404 32.1209 40.404H7.87848ZM32.1209 36.3636C32.6933 36.3636 33.1731 36.17 33.5603 35.7828C33.9475 35.3956 34.1411 34.9158 34.1411 34.3434V6.06061H11.9189V28.2828H30.1007V34.3434C30.1007 34.9158 30.2943 35.3956 30.6815 35.7828C31.0687 36.17 31.5485 36.3636 32.1209 36.3636ZM13.9391 14.1414V10.101H26.0603V14.1414H13.9391ZM13.9391 20.202V16.1616H26.0603V20.202H13.9391ZM30.1007 14.1414C29.5283 14.1414 29.0485 13.9478 28.6613 13.5606C28.2741 13.1734 28.0805 12.6936 28.0805 12.1212C28.0805 11.5488 28.2741 11.069 28.6613 10.6818C29.0485 10.2946 29.5283 10.101 30.1007 10.101C30.6731 10.101 31.1529 10.2946 31.5401 10.6818C31.9273 11.069 32.1209 11.5488 32.1209 12.1212C32.1209 12.6936 31.9273 13.1734 31.5401 13.5606C31.1529 13.9478 30.6731 14.1414 30.1007 14.1414ZM30.1007 20.202C29.5283 20.202 29.0485 20.0084 28.6613 19.6212C28.2741 19.234 28.0805 18.7542 28.0805 18.1818C28.0805 17.6094 28.2741 17.1296 28.6613 16.7424C29.0485 16.3552 29.5283 16.1616 30.1007 16.1616C30.6731 16.1616 31.1529 16.3552 31.5401 16.7424C31.9273 17.1296 32.1209 17.6094 32.1209 18.1818C32.1209 18.7542 31.9273 19.234 31.5401 19.6212C31.1529 20.0084 30.6731 20.202 30.1007 20.202ZM7.87848 36.3636H26.0603V32.3232H5.85828V34.3434C5.85828 34.9158 6.05188 35.3956 6.43908 35.7828C6.82629 36.17 7.30609 36.3636 7.87848 36.3636ZM5.85828 36.3636C5.85828 36.3636 5.85828 36.17 5.85828 35.7828C5.85828 35.3956 5.85828 34.9158 5.85828 34.3434V32.3232V36.3636Z" fill="currentColor"/>
</svg>
