<svg width="32" height="32" viewBox="0 0 32 32" fill="none" xmlns="http://www.w3.org/2000/svg">
<path d="M30.1336 18.4619C30.1333 19.198 29.5364 19.7951 28.8002 19.7952C28.064 19.7952 27.4671 19.1981 27.4669 18.4619V12.7314L17.4357 22.376C16.9195 22.8723 16.1041 22.8723 15.588 22.376L10.3679 17.3564L4.12446 23.3617C3.59364 23.8719 2.74939 23.8547 2.23904 23.3239C1.72866 22.7931 1.7447 21.9489 2.2755 21.4385L9.44347 14.5465L9.54373 14.4593C10.0606 14.0521 10.8085 14.0812 11.2924 14.5465L16.5112 19.5648L25.4903 10.9333H19.5841C18.8477 10.9333 18.2508 10.3363 18.2508 9.59993C18.2508 8.86356 18.8477 8.2666 19.5841 8.2666H28.8002C29.5365 8.26674 30.1336 8.86364 30.1336 9.59993V18.4619Z" fill="#1BC587"/>
</svg>
