<svg width="40" height="40" viewBox="0 0 40 40" fill="none" xmlns="http://www.w3.org/2000/svg">
<g clip-path="url(#clip0_596_1704)">
<rect width="40" height="40" rx="20" fill="#D8D8D8"/>
<path d="M38 40.6043C38 42.314 35.7659 44 33.8544 44H6.14401C4.23281 43.9997 2 42.3139 2 40.6043C2.00005 37.0417 4.45287 31.263 7.41496 28.9369C10.3415 26.6388 14.5837 25.3396 19.9989 25.3395C25.4144 25.3395 29.6578 26.6387 32.5844 28.9369C35.5464 31.263 38 37.0417 38 40.6043ZM27.3926 14.4807C27.3926 18.6125 24.0818 21.9629 19.9989 21.9629C15.9163 21.9626 12.6067 18.6122 12.6067 14.4807C12.6071 10.3494 15.9165 7.00034 19.9989 7C24.0816 7 27.3923 10.3491 27.3926 14.4807Z" fill="#B6B6B6"/>
</g>
<defs>
<clipPath id="clip0_596_1704">
<rect width="40" height="40" rx="20" fill="white"/>
</clipPath>
</defs>
</svg>
